<svg xmlns="http://www.w3.org/2000/svg" width="23.589" height="22.328" viewBox="0 0 23.589 22.328">
  <path id="Fill_4" data-name="Fill 4" d="M2.722,22.328a2.58,2.58,0,1,1,0-5.153,2.58,2.58,0,1,1,0,5.153Zm18.267,0a2.594,2.594,0,0,1-1.833-.749,2.513,2.513,0,0,1-.732-1.524l-.013-.012a7.377,7.377,0,0,0-2.163-4.261,7.516,7.516,0,0,0-4.315-2.074l-.012-.012a2.564,2.564,0,0,1-1.485-.716,2.551,2.551,0,0,1,.007-3.629,2.576,2.576,0,0,1,1.549-.722l.026-.015a7.306,7.306,0,0,0,4.256-2.046,7.358,7.358,0,0,0,2.141-4.258l.014-.014A2.507,2.507,0,0,1,19.163.748a2.619,2.619,0,0,1,3.666,0,2.537,2.537,0,0,1,0,3.617,2.576,2.576,0,0,1-1.546.721l-.012.011a7.574,7.574,0,0,0-4.32,2.135,7.256,7.256,0,0,0-2.054,3.96,7.035,7.035,0,0,0,2.027,3.921,7.538,7.538,0,0,0,4.319,2.112l.014.013a2.576,2.576,0,0,1,1.566.723,2.535,2.535,0,0,1,0,3.616A2.594,2.594,0,0,1,20.989,22.328Zm-9.073,0a2.593,2.593,0,0,1-1.833-.749,2.513,2.513,0,0,1-.732-1.524l-.012-.012a7.389,7.389,0,0,0-2.165-4.261A7.511,7.511,0,0,0,2.86,13.707l-.011-.012a2.579,2.579,0,0,1-1.486-.716,2.549,2.549,0,0,1,.008-3.629,2.569,2.569,0,0,1,1.548-.722l.027-.015A7.307,7.307,0,0,0,7.2,6.565,7.366,7.366,0,0,0,9.343,2.307l.013-.014A2.508,2.508,0,0,1,10.09.748a2.62,2.62,0,0,1,3.667,0,2.537,2.537,0,0,1,0,3.617,2.577,2.577,0,0,1-1.546.721L12.2,5.1A7.581,7.581,0,0,0,7.878,7.233a7.246,7.246,0,0,0-2.053,3.959,7.021,7.021,0,0,0,2.027,3.922,7.538,7.538,0,0,0,4.319,2.112l.014.013a2.57,2.57,0,0,1,1.564.723,2.533,2.533,0,0,1,0,3.616A2.593,2.593,0,0,1,11.916,22.328Zm8.95-8.015a2.654,2.654,0,0,1-2.721-2.576,2.726,2.726,0,0,1,5.444,0A2.656,2.656,0,0,1,20.866,14.313ZM2.722,5.153A2.655,2.655,0,0,1,0,2.576,2.655,2.655,0,0,1,2.722,0,2.655,2.655,0,0,1,5.444,2.576,2.655,2.655,0,0,1,2.722,5.153Z" fill="#04abfc"/>
</svg>