<?xml version="1.0" encoding="utf-8"?>
<!-- Generator: Adobe Illustrator 26.5.1, SVG Export Plug-In . SVG Version: 6.00 Build 0)  -->
<svg version="1.1" xmlns="http://www.w3.org/2000/svg" xmlns:xlink="http://www.w3.org/1999/xlink" x="0px" y="0px"
	 viewBox="0 0 349.08 85.04" style="enable-background:new 0 0 349.08 85.04;" xml:space="preserve">
<style type="text/css">
	.st0{fill-rule:evenodd;clip-rule:evenodd;fill:#fff;}
	.st1{fill:#ffffff;}
	.st2{fill:#fff;}
</style>
<g id="Layer_1">
</g>
<g id="레이어_2">
	<g id="Uyuni_suite">
		<path class="st0" d="M189.31,27.77l-0.06,15.19c-0.01,1.65-0.01,7.24,0.02,8.59c0.03,1.39,0.16,2.67,0.39,3.79
			c0.24,1.16,0.62,2.19,1.15,3.06c0.54,0.9,1.32,1.66,2.31,2.25c0.95,0.57,2.17,1,3.62,1.28c1.42,0.27,3.17,0.41,5.21,0.42
			l7.71,0.03c2.04,0.01,3.79-0.12,5.21-0.38c1.45-0.27,2.67-0.69,3.63-1.25c1-0.58,1.78-1.33,2.32-2.23
			c0.53-0.87,0.92-1.89,1.16-3.05c0.24-1.11,0.38-2.39,0.42-3.78c0.04-1.34,0.09-6.94,0.09-8.6l0.06-15.12l-4.76-0.02l-0.04,15.12
			c-0.01,1.73-0.04,7.3-0.07,8.55c-0.03,1.2-0.12,2.21-0.28,3.02c-0.15,0.75-0.37,1.34-0.66,1.77c-0.28,0.4-0.66,0.71-1.19,0.93
			c-0.57,0.24-1.34,0.41-2.27,0.49c-0.99,0.09-2.2,0.13-3.62,0.12l-7.71-0.03c-1.43-0.01-2.65-0.05-3.63-0.15
			c-0.93-0.09-1.69-0.26-2.26-0.51c-0.53-0.23-0.91-0.53-1.18-0.93c-0.29-0.43-0.5-1.03-0.64-1.77c-0.15-0.81-0.23-1.83-0.26-3.03
			c-0.03-1.25-0.02-6.81-0.01-8.55l0.06-15.19L189.31,27.77z M160.86,60.67l1.78,0.03c-0.28,0.62-0.55,1.2-0.79,1.75
			c-0.25,0.55-0.53,1.06-0.86,1.53c-0.32,0.48-0.73,0.91-1.22,1.29c-0.49,0.38-1.13,0.71-1.93,0.98c-0.8,0.27-1.39,0.48-2.57,0.62
			c-1.18,0.14-2.64,0.21-4.36,0.2l-0.02,4.6c2.01,0.01,3.75-0.08,5.23-0.28c1.47-0.19,2.34-0.47,3.41-0.83
			c1.07-0.36,1.99-0.81,2.76-1.33c0.77-0.52,1.44-1.12,2.01-1.78c0.57-0.67,1.07-1.41,1.5-2.22c0.43-0.81,0.85-1.68,1.26-2.59
			l0.88-1.85l15.65-34.14l-6.09-0.02L164.32,57l-13.68-30.55l-6.03-0.02L160.86,60.67z M242.22,27.97c-2.04-0.01-3.8,0.12-5.21,0.38
			c-1.45,0.26-2.67,0.68-3.63,1.23c-0.99,0.58-1.78,1.32-2.32,2.21c-0.52,0.86-0.92,1.87-1.16,3.02c-0.23,1.1-0.38,2.36-0.42,3.74
			c-0.04,1.36-0.08,3.86-0.08,5.47l-0.08,18.41l4.74,0.02l0.07-18.41c0.01-1.71,0.03-4.19,0.05-5.42c0.03-1.18,0.12-2.19,0.28-2.99
			c0.15-0.74,0.37-1.33,0.66-1.75c0.28-0.4,0.67-0.7,1.19-0.92c0.58-0.24,1.34-0.41,2.27-0.49c0.98-0.08,2.2-0.12,3.62-0.12
			l7.71,0.03c1.43,0.01,2.65,0.05,3.63,0.14c0.92,0.09,1.69,0.26,2.27,0.5c0.52,0.22,0.91,0.53,1.18,0.92
			c0.29,0.43,0.5,1.02,0.64,1.76c0.15,0.8,0.24,1.82,0.26,3c0.02,1.23,0.03,3.7,0.02,5.42l-0.07,18.44l4.73,0.02l0.07-18.44
			c0.01-1.63,0-4.12-0.03-5.46c-0.03-1.38-0.16-2.64-0.39-3.75c-0.24-1.15-0.62-2.17-1.15-3.03c-0.54-0.89-1.32-1.64-2.31-2.22
			c-0.96-0.56-2.17-0.99-3.62-1.26c-1.41-0.27-3.16-0.41-5.2-0.42L242.22,27.97z M272.87,62.61l4.59,0.02l0.13-34.53L273,28.08
			L272.87,62.61z M135.96,16.86l-0.05,22.16c-0.01,2.77-0.04,5.15-0.08,7.14c-0.04,1.99-0.2,3.67-0.47,5.03
			c-0.27,1.37-0.68,2.46-1.25,3.28c-0.57,0.83-1.36,1.46-2.39,1.9c-1.03,0.44-2.34,0.73-3.93,0.86c-1.6,0.14-3.54,0.2-5.85,0.2
			l-12.23-0.04c-2.32-0.01-4.27-0.09-5.85-0.24c-1.59-0.15-2.89-0.45-3.92-0.89c-1.03-0.45-1.82-1.09-2.37-1.91
			c-0.55-0.83-0.95-1.93-1.2-3.29c-0.25-1.37-0.39-3.05-0.43-5.04c-0.04-1.99-0.05-4.37-0.04-7.14l0.08-22.16l-5.22-0.02
			l-0.08,22.16c-0.01,2.62,0.01,5,0.05,7.16c0.05,2.15,0.24,4.09,0.59,5.8c0.35,1.72,0.9,3.21,1.67,4.48
			c0.77,1.27,1.85,2.33,3.26,3.17c1.41,0.84,3.21,1.47,5.39,1.89c2.18,0.42,4.87,0.64,8.06,0.65l12.23,0.04
			c3.19,0.01,5.88-0.18,8.06-0.59c2.18-0.41,3.98-1.02,5.4-1.86c1.42-0.83,2.51-1.88,3.27-3.15c0.77-1.27,1.33-2.76,1.69-4.47
			c0.36-1.71,0.57-3.64,0.65-5.8c0.07-2.15,0.11-4.54,0.12-7.15l0.08-22.16L135.96,16.86z M273.02,22.13l4.59,0.02l0.02-4.76
			l-4.59-0.02L273.02,22.13z"/>
		<g>
			<circle class="st1" cx="18.01" cy="21.97" r="6.43"/>
			<path class="st1" d="M18.01,59.39c-3.55,0-6.43,2.88-6.43,6.43c0,3.55,2.88,6.43,6.43,6.43c3.55,0,6.43-2.88,6.43-6.43
				C24.43,62.27,21.55,59.39,18.01,59.39z"/>
			<path class="st1" d="M62.74,59.46L62.74,59.46C54.5,58.3,47.98,52,46.45,43.89c1.53-8.11,8.05-14.4,16.29-15.56l-0.01-0.01
				c3.13-0.43,5.54-3.11,5.54-6.36c0-3.55-2.88-6.43-6.43-6.43c-3.25,0-5.92,2.41-6.36,5.54l-0.01-0.01
				c-1.2,8.54-7.91,15.25-16.45,16.45l0.01,0.01c-3.13,0.43-5.54,3.11-5.54,6.36c0,3.25,2.41,5.92,5.54,6.36l-0.01,0.01
				c8.54,1.2,15.25,7.91,16.45,16.45l0.01-0.01c0.43,3.13,3.11,5.54,6.36,5.54c3.55,0,6.43-2.88,6.43-6.43
				C68.27,62.57,65.86,59.89,62.74,59.46z"/>
			<path class="st1" d="M61.85,37.47c-3.55,0-6.43,2.88-6.43,6.43c0,3.55,2.88,6.43,6.43,6.43c3.55,0,6.43-2.88,6.43-6.43
				C68.27,40.35,65.4,37.47,61.85,37.47z"/>
			<path class="st1" d="M40.82,59.46L40.82,59.46C32.58,58.3,26.06,52,24.53,43.89c1.53-8.11,8.05-14.4,16.29-15.56l-0.01-0.01
				c3.13-0.43,5.54-3.11,5.54-6.36c0-3.55-2.88-6.43-6.43-6.43c-3.25,0-5.92,2.41-6.36,5.54l-0.01-0.01
				c-1.2,8.54-7.91,15.25-16.45,16.45l0.01,0.01c-3.13,0.43-5.54,3.11-5.54,6.36c0,3.25,2.41,5.92,5.54,6.36l-0.01,0.01
				c8.54,1.2,15.25,7.91,16.45,16.45l0.01-0.01c0.43,3.13,3.11,5.54,6.36,5.54c3.55,0,6.43-2.88,6.43-6.43
				C46.35,62.57,43.94,59.89,40.82,59.46z"/>
		</g>
	</g>
</g>
</svg>
